<svg xmlns="http://www.w3.org/2000/svg" viewBox="0 0 142 142" width="142" height="142">
  <title>Hidoko mark — Heart Field</title>
  <circle cx="26.00" cy="26.00" r="3.37" fill="currentColor" opacity="0.33"></circle>
  <circle cx="44.00" cy="26.00" r="4.41" fill="currentColor" opacity="0.43"></circle>
  <circle cx="98.00" cy="26.00" r="4.41" fill="currentColor" opacity="0.43"></circle>
  <circle cx="116.00" cy="26.00" r="3.37" fill="currentColor" opacity="0.33"></circle>
  <circle cx="8.00" cy="44.00" r="3.04" fill="currentColor" opacity="0.30"></circle>
  <circle cx="26.00" cy="44.00" r="4.59" fill="currentColor" opacity="0.45"></circle>
  <circle cx="44.00" cy="44.00" r="5.92" fill="currentColor" opacity="0.58"></circle>
  <circle cx="62.00" cy="44.00" r="6.78" fill="currentColor" opacity="0.67"></circle>
  <circle cx="80.00" cy="44.00" r="6.78" fill="currentColor" opacity="0.67"></circle>
  <circle cx="98.00" cy="44.00" r="5.92" fill="currentColor" opacity="0.58"></circle>
  <circle cx="116.00" cy="44.00" r="4.59" fill="currentColor" opacity="0.45"></circle>
  <circle cx="134.00" cy="44.00" r="3.04" fill="currentColor" opacity="0.30"></circle>
  <circle cx="8.00" cy="62.00" r="3.66" fill="currentColor" opacity="0.36"></circle>
  <circle cx="26.00" cy="62.00" r="5.41" fill="currentColor" opacity="0.53"></circle>
  <circle cx="44.00" cy="62.00" r="7.08" fill="currentColor" opacity="0.70"></circle>
  <circle cx="62.00" cy="62.00" r="8.45" fill="currentColor" opacity="0.83"></circle>
  <circle cx="80.00" cy="62.00" r="8.45" fill="currentColor" opacity="0.83"></circle>
  <circle cx="98.00" cy="62.00" r="7.08" fill="currentColor" opacity="0.70"></circle>
  <circle cx="116.00" cy="62.00" r="5.41" fill="currentColor" opacity="0.53"></circle>
  <circle cx="134.00" cy="62.00" r="3.66" fill="currentColor" opacity="0.36"></circle>
  <circle cx="26.00" cy="80.00" r="5.62" fill="currentColor" opacity="0.55"></circle>
  <circle cx="44.00" cy="80.00" r="7.42" fill="currentColor" opacity="0.73"></circle>
  <circle cx="62.00" cy="80.00" r="9.19" fill="currentColor" opacity="0.90"></circle>
  <circle cx="80.00" cy="80.00" r="9.19" fill="currentColor" opacity="0.90"></circle>
  <circle cx="98.00" cy="80.00" r="7.42" fill="currentColor" opacity="0.73"></circle>
  <circle cx="116.00" cy="80.00" r="5.62" fill="currentColor" opacity="0.55"></circle>
  <circle cx="26.00" cy="98.00" r="5.14" fill="currentColor" opacity="0.50"></circle>
  <circle cx="44.00" cy="98.00" r="6.68" fill="currentColor" opacity="0.66"></circle>
  <circle cx="62.00" cy="98.00" r="7.81" fill="currentColor" opacity="0.77"></circle>
  <circle cx="80.00" cy="98.00" r="7.81" fill="currentColor" opacity="0.77"></circle>
  <circle cx="98.00" cy="98.00" r="6.68" fill="currentColor" opacity="0.66"></circle>
  <circle cx="116.00" cy="98.00" r="5.14" fill="currentColor" opacity="0.50"></circle>
  <circle cx="44.00" cy="116.00" r="5.34" fill="currentColor" opacity="0.52"></circle>
  <circle cx="62.00" cy="116.00" r="6.08" fill="currentColor" opacity="0.60"></circle>
  <circle cx="80.00" cy="116.00" r="6.08" fill="currentColor" opacity="0.60"></circle>
  <circle cx="98.00" cy="116.00" r="5.34" fill="currentColor" opacity="0.52"></circle>
  <circle cx="62.00" cy="134.00" r="4.30" fill="currentColor" opacity="0.42"></circle>
  <circle cx="80.00" cy="134.00" r="4.30" fill="currentColor" opacity="0.42"></circle>
</svg>