<svg xmlns="http://www.w3.org/2000/svg" viewBox="0 0 142 142" width="142" height="142">
  <title>Hidoko mark — Heart Field</title>
  <circle cx="26.00" cy="26.00" r="3.37" fill="#f1ebdd"></circle>
  <circle cx="44.00" cy="26.00" r="4.41" fill="#d4b58a"></circle>
  <circle cx="98.00" cy="26.00" r="4.41" fill="#d4b58a"></circle>
  <circle cx="116.00" cy="26.00" r="3.37" fill="#f1ebdd"></circle>
  <circle cx="8.00" cy="44.00" r="3.04" fill="#f1ebdd"></circle>
  <circle cx="26.00" cy="44.00" r="4.59" fill="#d4b58a"></circle>
  <circle cx="44.00" cy="44.00" r="5.92" fill="#c08850"></circle>
  <circle cx="62.00" cy="44.00" r="6.78" fill="#b06530"></circle>
  <circle cx="80.00" cy="44.00" r="6.78" fill="#b06530"></circle>
  <circle cx="98.00" cy="44.00" r="5.92" fill="#c08850"></circle>
  <circle cx="116.00" cy="44.00" r="4.59" fill="#d4b58a"></circle>
  <circle cx="134.00" cy="44.00" r="3.04" fill="#f1ebdd"></circle>
  <circle cx="8.00" cy="62.00" r="3.66" fill="#e6dcc6"></circle>
  <circle cx="26.00" cy="62.00" r="5.41" fill="#c08850"></circle>
  <circle cx="44.00" cy="62.00" r="7.08" fill="#9b3f18"></circle>
  <circle cx="62.00" cy="62.00" r="8.45" fill="#7a2810"></circle>
  <circle cx="80.00" cy="62.00" r="8.45" fill="#7a2810"></circle>
  <circle cx="98.00" cy="62.00" r="7.08" fill="#9b3f18"></circle>
  <circle cx="116.00" cy="62.00" r="5.41" fill="#c08850"></circle>
  <circle cx="134.00" cy="62.00" r="3.66" fill="#e6dcc6"></circle>
  <circle cx="26.00" cy="80.00" r="5.62" fill="#c08850"></circle>
  <circle cx="44.00" cy="80.00" r="7.42" fill="#9b3f18"></circle>
  <circle cx="62.00" cy="80.00" r="9.19" fill="#52180a"></circle>
  <circle cx="80.00" cy="80.00" r="9.19" fill="#52180a"></circle>
  <circle cx="98.00" cy="80.00" r="7.42" fill="#9b3f18"></circle>
  <circle cx="116.00" cy="80.00" r="5.62" fill="#c08850"></circle>
  <circle cx="26.00" cy="98.00" r="5.14" fill="#c08850"></circle>
  <circle cx="44.00" cy="98.00" r="6.68" fill="#b06530"></circle>
  <circle cx="62.00" cy="98.00" r="7.81" fill="#7a2810"></circle>
  <circle cx="80.00" cy="98.00" r="7.81" fill="#7a2810"></circle>
  <circle cx="98.00" cy="98.00" r="6.68" fill="#b06530"></circle>
  <circle cx="116.00" cy="98.00" r="5.14" fill="#c08850"></circle>
  <circle cx="44.00" cy="116.00" r="5.34" fill="#c08850"></circle>
  <circle cx="62.00" cy="116.00" r="6.08" fill="#b06530"></circle>
  <circle cx="80.00" cy="116.00" r="6.08" fill="#b06530"></circle>
  <circle cx="98.00" cy="116.00" r="5.34" fill="#c08850"></circle>
  <circle cx="62.00" cy="134.00" r="4.30" fill="#d4b58a"></circle>
  <circle cx="80.00" cy="134.00" r="4.30" fill="#d4b58a"></circle>
</svg>