<svg xmlns="http://www.w3.org/2000/svg" viewBox="0 0 142 142" width="142" height="142">
  <title>Hidoko mark — Heart Field</title>
  <circle cx="26.00" cy="26.00" r="3.37" fill="#0c0a08"></circle>
  <circle cx="44.00" cy="26.00" r="4.41" fill="#3a160a"></circle>
  <circle cx="98.00" cy="26.00" r="4.41" fill="#3a160a"></circle>
  <circle cx="116.00" cy="26.00" r="3.37" fill="#0c0a08"></circle>
  <circle cx="8.00" cy="44.00" r="3.04" fill="#0c0a08"></circle>
  <circle cx="26.00" cy="44.00" r="4.59" fill="#3a160a"></circle>
  <circle cx="44.00" cy="44.00" r="5.92" fill="#6b1f0c"></circle>
  <circle cx="62.00" cy="44.00" r="6.78" fill="#9b2f0e"></circle>
  <circle cx="80.00" cy="44.00" r="6.78" fill="#9b2f0e"></circle>
  <circle cx="98.00" cy="44.00" r="5.92" fill="#6b1f0c"></circle>
  <circle cx="116.00" cy="44.00" r="4.59" fill="#3a160a"></circle>
  <circle cx="134.00" cy="44.00" r="3.04" fill="#0c0a08"></circle>
  <circle cx="8.00" cy="62.00" r="3.66" fill="#1a120a"></circle>
  <circle cx="26.00" cy="62.00" r="5.41" fill="#6b1f0c"></circle>
  <circle cx="44.00" cy="62.00" r="7.08" fill="#c64414"></circle>
  <circle cx="62.00" cy="62.00" r="8.45" fill="#e85d20"></circle>
  <circle cx="80.00" cy="62.00" r="8.45" fill="#e85d20"></circle>
  <circle cx="98.00" cy="62.00" r="7.08" fill="#c64414"></circle>
  <circle cx="116.00" cy="62.00" r="5.41" fill="#6b1f0c"></circle>
  <circle cx="134.00" cy="62.00" r="3.66" fill="#1a120a"></circle>
  <circle cx="26.00" cy="80.00" r="5.62" fill="#6b1f0c"></circle>
  <circle cx="44.00" cy="80.00" r="7.42" fill="#c64414"></circle>
  <circle cx="62.00" cy="80.00" r="9.19" fill="#f47d3a"></circle>
  <circle cx="80.00" cy="80.00" r="9.19" fill="#f47d3a"></circle>
  <circle cx="98.00" cy="80.00" r="7.42" fill="#c64414"></circle>
  <circle cx="116.00" cy="80.00" r="5.62" fill="#6b1f0c"></circle>
  <circle cx="26.00" cy="98.00" r="5.14" fill="#6b1f0c"></circle>
  <circle cx="44.00" cy="98.00" r="6.68" fill="#9b2f0e"></circle>
  <circle cx="62.00" cy="98.00" r="7.81" fill="#e85d20"></circle>
  <circle cx="80.00" cy="98.00" r="7.81" fill="#e85d20"></circle>
  <circle cx="98.00" cy="98.00" r="6.68" fill="#9b2f0e"></circle>
  <circle cx="116.00" cy="98.00" r="5.14" fill="#6b1f0c"></circle>
  <circle cx="44.00" cy="116.00" r="5.34" fill="#6b1f0c"></circle>
  <circle cx="62.00" cy="116.00" r="6.08" fill="#9b2f0e"></circle>
  <circle cx="80.00" cy="116.00" r="6.08" fill="#9b2f0e"></circle>
  <circle cx="98.00" cy="116.00" r="5.34" fill="#6b1f0c"></circle>
  <circle cx="62.00" cy="134.00" r="4.30" fill="#3a160a"></circle>
  <circle cx="80.00" cy="134.00" r="4.30" fill="#3a160a"></circle>
</svg>